<?xml version="1.0" encoding="UTF-8"?>
<svg version="1.1" viewBox="0 0 214.76 42.603" xmlns="http://www.w3.org/2000/svg" xmlns:cc="http://creativecommons.org/ns#" xmlns:dc="http://purl.org/dc/elements/1.1/" xmlns:rdf="http://www.w3.org/1999/02/22-rdf-syntax-ns#" xmlns:xlink="http://www.w3.org/1999/xlink"><metadata><rdf:RDF><cc:Work rdf:about=""><dc:format>image/svg+xml</dc:format><dc:type rdf:resource="http://purl.org/dc/dcmitype/StillImage"/><dc:title/></cc:Work></rdf:RDF></metadata><defs><path id="a" d="m42.598 20.557a21.18 21.18 0 0 1-2.915 11.523c-3.893 6.638-10.897 10.546-18.523 10.523-4.368-0.014-7.883-3.597-7.853-7.964a7.906 7.906 0 0 1 7.418-7.834c0.38-0.033 1.534-0.105 3.087 0.07 3.381 0.38 8.547 1.15 10.995 0.473 5.355-1.48 7.053-4.445 7.497-6.816 0.031-0.173 0.29-0.152 0.295 0.025zm-28.836-12.855a7.907 7.907 0 0 1 3.076 10.341c-0.16 0.345-0.677 1.381-1.605 2.639-2.02 2.737-5.269 6.826-5.907 9.284-1.397 5.379 0.323 8.33 2.154 9.9 0.135 0.115-0.013 0.327-0.169 0.243a21.189 21.189 0 0 1-8.522-8.286c-3.8-6.69-3.685-14.71 0.15-21.303 2.196-3.776 7.056-5.028 10.823-2.818zm7.697-7.702c7.694 0.055 14.58 4.163 18.374 10.781 2.172 3.79 0.827 8.626-2.97 10.782a7.906 7.906 0 0 1-10.494-2.506c-0.218-0.312-0.858-1.277-1.484-2.709-1.36-3.117-3.276-7.977-5.086-9.759-3.96-3.897-7.376-3.885-9.651-3.083-0.166 0.059-0.278-0.176-0.128-0.27a21.19 21.19 0 0 1 11.44-3.234z"/></defs><g transform="translate(-.15301 -.314)" fill="none" fill-rule="evenodd"><path d="m71.131 35.164c0 0.678-0.276 1.196-0.828 1.55s-1.337 0.501-2.356 0.445l-1.147-0.084c-4.756-0.339-7.135-2.888-7.135-7.645v-9.257h-2.122c-0.765 0-1.354-0.17-1.763-0.51s-0.616-0.835-0.616-1.487c0-0.65 0.207-1.145 0.616-1.486 0.41-0.34 0.998-0.509 1.763-0.509h2.122v-3.906c0-0.766 0.24-1.372 0.722-1.827 0.481-0.453 1.133-0.679 1.954-0.679 0.792 0 1.43 0.226 1.911 0.68 0.482 0.454 0.722 1.06 0.722 1.826v3.906h3.61c0.764 0 1.351 0.169 1.762 0.51 0.41 0.34 0.616 0.835 0.616 1.485 0 0.652-0.206 1.147-0.616 1.486-0.41 0.34-0.998 0.511-1.761 0.511h-3.61v9.641c0 2.095 0.961 3.211 2.886 3.354l1.146 0.084c1.415 0.086 2.124 0.723 2.124 1.912m16.094-18.94c0.426 0.368 0.637 0.92 0.637 1.656 0 0.765-0.184 1.332-0.552 1.698-0.367 0.368-1.034 0.61-1.996 0.722l-1.274 0.128c-1.67 0.17-2.895 0.737-3.673 1.698-0.779 0.963-1.168 2.167-1.168 3.61v8.918c0 0.821-0.255 1.452-0.764 1.89-0.51 0.439-1.146 0.658-1.91 0.658-0.766 0-1.397-0.22-1.891-0.659-0.494-0.437-0.743-1.068-0.743-1.889v-16.434c0-0.792 0.249-1.4 0.743-1.826 0.494-0.425 1.112-0.637 1.847-0.637 0.737 0 1.33 0.206 1.784 0.615 0.453 0.412 0.68 1 0.68 1.764v1.699c0.536-1.245 1.337-2.21 2.399-2.889a7.35 7.35 0 0 1 3.546-1.146l0.593-0.043c0.737-0.056 1.317 0.1 1.742 0.467m14.077 15.819c0.89-0.947 1.338-2.172 1.338-3.673v-0.891h-0.766c-1.897 0-3.369 0.084-4.416 0.253-1.048 0.17-1.797 0.469-2.25 0.894-0.455 0.423-0.68 1.003-0.68 1.74 0 0.905 0.319 1.65 0.956 2.229 0.637 0.58 1.422 0.872 2.357 0.872 1.415 0 2.57-0.475 3.46-1.424m4.29-14.227c1.401 1.431 2.101 3.604 2.101 6.52v10.362c0 0.763-0.226 1.366-0.68 1.804-0.452 0.439-1.075 0.659-1.868 0.659-0.736 0-1.337-0.227-1.805-0.68-0.465-0.453-0.699-1.046-0.699-1.783v-0.935a5.56 5.56 0 0 1-2.273 2.592c-1.034 0.622-2.23 0.932-3.589 0.932-1.387 0-2.646-0.283-3.779-0.848-1.133-0.566-2.023-1.344-2.674-2.336a5.895 5.895 0 0 1-0.977-3.312c0-1.528 0.388-2.732 1.168-3.61 0.778-0.878 2.045-1.515 3.8-1.912 1.754-0.395 4.176-0.592 7.262-0.592h1.062v-0.978c0-1.387-0.297-2.4-0.893-3.038-0.594-0.636-1.557-0.954-2.887-0.954a9.18 9.18 0 0 0-2.506 0.361c-0.85 0.241-1.854 0.587-3.014 1.04-0.737 0.368-1.276 0.552-1.615 0.552-0.51 0-0.927-0.184-1.253-0.552-0.325-0.367-0.488-0.848-0.488-1.444 0-0.482 0.121-0.897 0.361-1.252 0.24-0.354 0.644-0.686 1.21-0.999 0.991-0.537 2.173-0.96 3.546-1.272a18.286 18.286 0 0 1 4.056-0.467c2.887 0 5.033 0.714 6.434 2.142m23.419-0.02c1.217 1.416 1.826 3.553 1.826 6.412v10.448c0 0.792-0.234 1.415-0.7 1.867-0.468 0.453-1.111 0.68-1.933 0.68-0.821 0-1.472-0.227-1.954-0.68-0.48-0.452-0.72-1.075-0.72-1.867v-10.15c0-1.615-0.305-2.79-0.913-3.526-0.611-0.736-1.565-1.104-2.867-1.104-1.53 0-2.754 0.482-3.674 1.443-0.92 0.965-1.38 2.253-1.38 3.866v9.471c0 0.792-0.24 1.415-0.721 1.867-0.482 0.453-1.133 0.68-1.954 0.68-0.822 0-1.464-0.227-1.931-0.68-0.468-0.452-0.702-1.075-0.702-1.867v-16.596c0-0.735 0.24-1.328 0.72-1.781 0.483-0.455 1.135-0.681 1.954-0.681 0.736 0 1.34 0.22 1.807 0.659 0.467 0.44 0.7 1.011 0.7 1.72v1.304a7.18 7.18 0 0 1 2.846-2.676 8.81 8.81 0 0 1 4.087-0.987c2.492 0 4.291 0.763 5.509 2.176m5.564 17.666c-0.906-0.538-1.36-1.3-1.36-2.292 0-0.566 0.156-1.025 0.467-1.381 0.312-0.353 0.693-0.531 1.148-0.531 0.48 0 1.146 0.229 1.995 0.68 0.906 0.425 1.734 0.75 2.483 0.978 0.75 0.226 1.705 0.34 2.866 0.34 1.19 0 2.117-0.199 2.782-0.596 0.665-0.396 0.999-0.946 0.999-1.657 0-0.48-0.136-0.861-0.403-1.146-0.27-0.282-0.752-0.543-1.445-0.785-0.694-0.24-1.747-0.516-3.163-0.828-2.52-0.51-4.325-1.231-5.415-2.166s-1.634-2.221-1.634-3.864c0-1.246 0.366-2.371 1.104-3.378 0.736-1.003 1.747-1.783 3.036-2.335 1.288-0.551 2.753-0.9 4.396-0.9 1.187 0 2.335 0.22 3.44 0.519 1.103 0.296 2.094 0.729 2.972 1.294 0.905 0.567 1.358 1.317 1.358 2.251 0 0.568-0.155 1.04-0.467 1.423-0.313 0.382-0.694 0.573-1.147 0.573-0.312 0-0.615-0.064-0.913-0.191a12.256 12.256 0 0 1-1.125-0.573c-0.822-0.424-1.529-0.744-2.123-0.955-0.595-0.212-1.332-0.32-2.209-0.32-1.046 0-1.876 0.214-2.483 0.638-0.61 0.424-0.913 1.005-0.913 1.74 0 0.708 0.31 1.249 0.933 1.615 0.623 0.37 1.827 0.736 3.61 1.104 1.896 0.397 3.383 0.85 4.458 1.359 1.078 0.51 1.848 1.146 2.316 1.911 0.467 0.765 0.7 1.74 0.7 2.93 0 1.926-0.8 3.469-2.398 4.628-1.601 1.162-3.731 1.741-6.393 1.741-3.085 0-5.577-0.607-7.472-1.826m20.444 1.084c-0.494-0.438-0.743-1.068-0.743-1.89v-25.351c0-0.821 0.272-1.42 0.767-1.844 0.495-0.425 1.127-0.638 1.891-0.638 0.763 0 1.4 0.213 1.91 0.638s0.74 1.023 0.74 1.844v25.353c0 0.82-0.254 1.45-0.764 1.889-0.51 0.438-1.146 0.657-1.91 0.657-0.765 0-1.397-0.22-1.891-0.657m9.088 0c-0.494-0.438-0.742-1.068-0.742-1.89v-16.55c0-0.82 0.248-1.444 0.742-1.868 0.494-0.426 1.126-0.637 1.89-0.637 0.765 0 1.4 0.211 1.911 0.637 0.51 0.424 0.763 1.048 0.763 1.869v16.55c0 0.82-0.253 1.45-0.763 1.889-0.51 0.438-1.146 0.657-1.91 0.657-0.765 0-1.397-0.22-1.89-0.657m-0.402-24.877c-0.565-0.523-0.848-1.21-0.848-2.059 0-0.85 0.283-1.53 0.848-2.039 0.566-0.509 1.332-0.764 2.294-0.764 0.935 0 1.69 0.255 2.271 0.764 0.58 0.51 0.871 1.19 0.871 2.039 0 0.85-0.284 1.536-0.85 2.06-0.565 0.524-1.33 0.786-2.292 0.786s-1.728-0.262-2.294-0.787m26.368 6.127c1.217 1.417 1.826 3.554 1.826 6.413v10.448c0 0.792-0.234 1.415-0.7 1.867-0.469 0.453-1.111 0.68-1.933 0.68-0.821 0-1.472-0.227-1.954-0.68-0.48-0.452-0.72-1.075-0.72-1.867v-10.15c0-1.615-0.306-2.79-0.913-3.526-0.612-0.736-1.565-1.104-2.867-1.104-1.53 0-2.754 0.482-3.674 1.443-0.92 0.965-1.38 2.253-1.38 3.866v9.471c0 0.792-0.24 1.415-0.721 1.867-0.482 0.453-1.133 0.68-1.954 0.68-0.822 0-1.464-0.227-1.931-0.68-0.468-0.452-0.702-1.075-0.702-1.867v-16.596c0-0.735 0.24-1.328 0.72-1.781 0.482-0.455 1.135-0.681 1.954-0.681 0.736 0 1.339 0.22 1.807 0.659 0.467 0.44 0.7 1.011 0.7 1.72v1.304a7.18 7.18 0 0 1 2.846-2.676 8.599 8.599 0 0 1 4.033-1.007c2.492 0 4.345 0.783 5.563 2.196m24.842 16.86c0 0.653-0.234 1.23-0.7 1.742-0.469 0.509-1.014 0.763-1.636 0.763-0.623 0-1.204-0.254-1.741-0.763l-9.937-9.003v7.262c0 0.82-0.255 1.443-0.765 1.867-0.51 0.425-1.146 0.637-1.91 0.637s-1.395-0.212-1.89-0.637c-0.495-0.424-0.742-1.046-0.742-1.867v-25.341c0-0.82 0.247-1.444 0.742-1.868s1.126-0.638 1.89-0.638 1.4 0.214 1.91 0.638 0.765 1.048 0.765 1.868v15.955l9.088-8.705c0.509-0.51 1.09-0.764 1.742-0.764 0.65 0 1.215 0.24 1.698 0.722 0.48 0.48 0.721 1.047 0.721 1.698 0 0.65-0.27 1.246-0.808 1.783l-6.666 6.2 7.39 6.625c0.566 0.539 0.849 1.147 0.849 1.827" fill="#fff" fill-rule="nonzero"/><path d="m42.751 20.871a21.18 21.18 0 0 1-2.914 11.524c-3.895 6.637-10.897 10.545-18.525 10.522-4.368-0.014-7.882-3.596-7.853-7.964a7.906 7.906 0 0 1 7.418-7.834c0.38-0.033 1.535-0.104 3.087 0.07 3.382 0.38 8.547 1.15 10.995 0.473 5.356-1.48 7.054-4.445 7.497-6.816 0.032-0.172 0.29-0.152 0.295 0.025zm-28.836-12.855a7.907 7.907 0 0 1 3.076 10.341c-0.16 0.345-0.676 1.382-1.604 2.64-2.02 2.736-5.27 6.826-5.908 9.283-1.397 5.38 0.323 8.33 2.154 9.901 0.135 0.114-0.012 0.327-0.168 0.243a21.189 21.189 0 0 1-8.523-8.287c-3.8-6.69-3.684-14.709 0.151-21.302 2.195-3.777 7.055-5.03 10.822-2.819zm7.697-7.701c7.694 0.055 14.58 4.164 18.375 10.782 2.172 3.789 0.826 8.625-2.971 10.782a7.906 7.906 0 0 1-10.494-2.507c-0.218-0.312-0.858-1.276-1.484-2.708-1.36-3.118-3.275-7.978-5.086-9.76-3.96-3.897-7.376-3.885-9.65-3.083-0.167 0.06-0.278-0.176-0.128-0.269a21.19 21.19 0 0 1 11.438-3.237z" fill="#ef5db0" fill-rule="nonzero"/><g transform="translate(.153 .314)"><mask id="b" fill="#ffffff"><use width="100%" height="100%" xlink:href="#a"/></mask><g fill="#ef60a3" fill-rule="nonzero" mask="url(#b)"><path d="m0 0h42.947v42.947h-42.947z"/></g></g></g></svg>
